<svg xmlns="http://www.w3.org/2000/svg" version="1.1" xmlns:xlink="http://www.w3.org/1999/xlink" xmlns:svgjs="http://svgjs.dev/svgjs" width="2000" height="696" viewBox="0 0 2000 696"><g transform="matrix(1,0,0,1,-1.2121212121213603,0.6286062015346943)"><svg viewBox="0 0 396 138" data-background-color="#ffffff" preserveAspectRatio="xMidYMid meet" height="696" width="2000" xmlns="http://www.w3.org/2000/svg" xmlns:xlink="http://www.w3.org/1999/xlink"><g id="tight-bounds" transform="matrix(1,0,0,1,0.24000000000003752,-0.1246374365111933)"><svg viewBox="0 0 395.5199999999999 138.2492748730224" height="138.2492748730224" width="395.5199999999999"><g><svg viewBox="0 0 669.5181612623853 234.02204770642203" height="138.2492748730224" width="395.5199999999999"><g transform="matrix(1,0,0,1,0,32.34313394495413)"><svg viewBox="0 0 395.52 169.33577981651376" height="169.33577981651376" width="395.52"><g id="textblocktransform"><svg viewBox="0 0 395.52 169.33577981651376" height="169.33577981651376" width="395.52" id="textblock"><g><svg viewBox="0 0 395.52 169.33577981651376" height="169.33577981651376" width="395.52"><g transform="matrix(1,0,0,1,0,0)"><svg width="395.52" viewBox="0.5 -35 81.75 35" height="169.33577981651376" data-palette-color="#0ea5e9"><path d="M23.2-30L23.2 0 18.2 0 18.2-30 0.5-30 0.5-35 40.9-35 40.9-30 23.2-30ZM82.25-20L82.25 0 59.7 0Q56.05 0 53.1-1.35 50.15-2.7 48.02-5.1 45.9-7.5 44.75-10.68 43.6-13.85 43.6-17.5L43.6-17.5Q43.6-21.1 44.75-24.28 45.9-27.45 48.02-29.88 50.15-32.3 53.1-33.65 56.05-35 59.7-35L59.7-35 82.25-35 82.25-30 59.7-30Q56.25-30 53.77-28.33 51.3-26.65 49.95-23.8 48.6-20.95 48.6-17.5L48.6-17.5Q48.6-14.05 49.95-11.23 51.3-8.4 53.77-6.7 56.25-5 59.7-5L59.7-5 77.25-5 77.25-15 56.05-15 56.05-20 82.25-20Z" opacity="1" transform="matrix(1,0,0,1,0,0)" fill="#0ea5e9" class="wordmark-text-0" data-fill-palette-color="primary" id="text-0"></path></svg></g></svg></g></svg></g></svg></g><g transform="matrix(1,0,0,1,435.4961135559633,0)"><svg viewBox="0 0 234.02204770642203 234.02204770642203" height="234.02204770642203" width="234.02204770642203"><g data-palette-color="#0ea5e9"><rect width="63.96602637308869" height="234.02204770642203" fill="#0ea5e9" stroke="transparent" data-fill-palette-color="accent" x="0" fill-opacity="1"></rect><rect width="63.96602637308869" height="234.02204770642203" fill="#0ea5e9" stroke="transparent" data-fill-palette-color="accent" x="78.00734923547401" fill-opacity="0.75"></rect><rect width="63.96602637308869" height="234.02204770642203" fill="#0ea5e9" stroke="transparent" data-fill-palette-color="accent" x="156.01469847094802" fill-opacity="0.5"></rect></g></svg></g></svg></g><defs></defs></svg><rect width="395.5199999999999" height="138.2492748730224" fill="none" stroke="none" visibility="hidden"></rect></g></svg></g></svg>